<?xml version="1.0" encoding="utf-8"?>
<!-- Generator: Adobe Illustrator 22.1.0, SVG Export Plug-In . SVG Version: 6.00 Build 0)  -->
<svg version="1.1" id="Layer_1" xmlns="http://www.w3.org/2000/svg" xmlns:xlink="http://www.w3.org/1999/xlink" x="0px" y="0px"
	 viewBox="0 0 188 443.4" style="enable-background:new 0 0 188 443.4;" xml:space="preserve">
<path d="M57.9,78.5V52.7c-6.8,8.5-15.6,16.6-23.1,21.5c-1.3-1.8-4-4.6-5.9-5.7c9-4.8,19.9-14.5,26.3-23.9H31v-7h25.7V26.1
	C48.8,27.1,41,28,33,28.7c-0.4-1.6-1.8-4.7-2.6-6.2c17.4-1.6,38.6-4.6,49.2-8.8l8,6.2c-0.6,0.4-0.6,0.4-2.6,0.4
	c-4.7,1.6-10.5,2.9-17.2,4.2c-0.4,0.6-1.1,0.9-2.6,1.3v11.7h24.6v7H65.2v4.3c4.9,2.3,19.5,10.8,23.1,13l-4.6,6.8
	C80.3,65.7,66.3,56,66.3,56v21.3l-8.5,1.2h0.1V78.5z M101.8,67.2c-0.4,0.9-1.3,1.6-2.6,1.6c13.6,12.1,38,23.2,58.5,28.2
	c-1.6,2.3-4,5.5-5.1,8.2C132.5,99,107.4,87.1,93.1,74C80.7,86,57.7,99,33.9,106.8c-0.9-1.9-2.9-5.1-4.2-7.1
	c23.8-7.1,47.2-20.1,58.9-32.8L101.8,67.2z M40.4,128.9c10.4-3.6,26.7-9,41.9-14.9l1.3,6.8c-13.6,5.5-28,11.4-37.4,14.6
	c0,0.9-0.6,1.6-1.3,2.3L40.4,128.9z M64.7,96.1c4.9,4,10.4,9.7,13,13.6l-7.1,4.9c-2.6-4-7.8-10.1-12.4-14.3L64.7,96.1z M88.3,86.9
	L99,87.4c-0.4,0.9-0.9,1.6-2.5,1.9v42.4c0,0-3.5,9.5-20.1,9.5c-0.6-2.3-1.6-5.5-2.9-7.6h12.8c1.6-0.2,1.9-0.8,2.1-2.2V86.9
	L88.3,86.9L88.3,86.9z M130.5,36.4c-4.2,13.8-11,26.8-19.4,35.2c-1.6-1.3-4.6-3.6-6.4-4.6c7.1-6.8,17.2-29.5,17.2-29.5h-14.6
	c0,0-7.8,12.3-12.1,17.1c-1.6-1.3-4.6-3.6-6.9-4.9c7.8-8,15-22,19.3-35.9l10.4,2.6c-0.4,0.9-1.3,1.3-2.9,1.3
	c-1.3,3.6-4.2,10.4-4.2,10.4h35.9l2-0.4l5.1,0.7c0,1.1,0,2-0.4,3c-1.4,29.5-2.8,40.6-6.2,44c-2,2.5-3.9,3.9-12.9,3.9
	c-2.8,0-5.5,0-8.3-0.4c0-2.5-1.1-6.2-2.5-8.3c5.1,0.4,9.6,0.4,11.7,0.4c4.9,0,6.9,0,9-34.5h-13.9V36.4L130.5,36.4z M140.2,137.9
	c-9.7-6.2-27.7-14.6-42.4-19.4l5.9-5.5c14.3,4.9,32.3,13,42.4,18.8L140.2,137.9z M114.4,114.4l-6.2-3.6c4.2-4.2,10.1-11,13.3-15.6
	c5.1,2.9,7.1,4,9,4.9c-0.6,0.6-1.6,0.9-2.6,0.9C124.5,104.4,118.7,110.4,114.4,114.4z"/>
<path d="M66.1,235.3c5.5,4.2,20.5,16.4,24,19.3l-5.1,7.5c-3.6-4-12.1-12.2-18.8-17.9v35.7h-9.4v-37.1c-6.3,10.9-15,21.3-23.2,27.7
	c-0.9-2.2-3.5-5.1-5-7.1c9.5-6.7,19.7-19,25.7-31.5H31v-8.2h25.7v-15.2H29.8v-8.2h62v8.2h-25h1.9c0,1.1-1.1,1.8-2.6,1.8v13.5h24.6v7
	H66.1L66.1,235.3L66.1,235.3z M89.5,167.5v8.2H32.2v-8.2h25.7v-14.2l10.6,0.6c0,0.9-0.9,1.6-2.5,1.9v12.8l24-1.2h-0.6V167.5z
	 M48.2,177.1c2.9,6.4,5.1,14.9,6.2,20.8l-7.8,1.9c-0.6-5.5-2.6-14.3-5.5-20.8L48.2,177.1z M85,179.7c-0.4,0.9-1.3,1.3-2.9,1.3
	c-1.6,5.5-4.6,14-7.1,19.2l-6.9-2.3c2.3-5.9,5.1-14.9,6.4-21.1L85,179.7z M116.7,241c-0.4,0.9-0.9,1.6-2.6,1.6
	c-2.9,14.6-8.4,29.5-27.3,37.7c-0.9-1.9-3.6-5.1-5.5-6.8c16.6-6.8,22.1-19.8,24.3-33.8L116.7,241z M134.8,267c0,2.8,0.4,3.5,2.8,3.5
	h9.1c2.9,0,3.6-2,3.6-19.2c2,1.8,5.6,2.9,8,3.6c-1.1,19.2-2.9,23.8-10.5,23.8h-10.3c-8.9,0-10.5-2.6-10.5-11.9v-30.2H96.5v-78.4
	h53.8v79.6h-15.2V267H134.8L134.8,267z M104.7,167.5v15.2H141v-15.2H104.7z M104.7,189.6v15.3H141v-15.2L104.7,189.6L104.7,189.6z
	 M104.7,213.1v15.2H141v-15.2H104.7z"/>
<path d="M98.9,377v30.3c10.4,1.9,14.9,1.9,58.9,1.9c-1.3,2.3-2.9,6.4-3.6,8.8h-30.8c-30,0-51.4-5.5-64.4-30.2
	c-4.6,12.6-11.7,24.7-22.1,32.8c-1.6-1.9-4.6-4.9-6.9-6.4c17.2-12.6,24.1-36.4,26-56.8L68,359c0,0.9-0.9,1.6-2.6,1.6
	c-0.6,4.9-1.6,10.1-2.9,15.3c5.5,15.3,14.7,24,27,28.6v-56.8H47.4v-48h94.8v48H98.9v21.1h46.8v8.2H98.9L98.9,377z M55.6,307.9v30.4
	h76.1v-30.4H56.3H55.6z"/>
</svg>
