<?xml version="1.0" encoding="utf-8"?>
<!-- Generator: Adobe Illustrator 22.1.0, SVG Export Plug-In . SVG Version: 6.00 Build 0)  -->
<svg version="1.1" id="Layer_1" xmlns="http://www.w3.org/2000/svg" xmlns:xlink="http://www.w3.org/1999/xlink" x="0px" y="0px"
	 viewBox="0 0 200 200" style="enable-background:new 0 0 200 200;" xml:space="preserve">
<style type="text/css">
	.st0{clip-path:url(#SVGID_2_);}
	.st1{fill:#FFFFFF;}
	.st2{fill:none;stroke:#000000;stroke-width:10;}
</style>
<g>
	<defs>
		<rect id="SVGID_1_" width="200" height="200"/>
	</defs>
	<clipPath id="SVGID_2_">
		<use xlink:href="#SVGID_1_"  style="overflow:visible;"/>
	</clipPath>
	<g class="st0">
		<rect class="st1" width="200" height="200"/>
		<path d="M59.8,41.7h29.7v104.2h64.4v24.2H59.8V41.7z"/>
		<path d="M150.6,53.2v6.1h-24.3v-4.8l12.4-11.7c1.3-1.3,2.2-2.3,2.7-3.2c0.5-0.9,0.7-1.8,0.7-2.7c0-1.3-0.4-2.3-1.3-2.9
			c-0.9-0.7-2.1-1.1-3.8-1.1c-1.4,0-2.7,0.3-3.8,0.8c-1.1,0.5-2.1,1.3-2.8,2.4l-5.4-3.5c1.3-1.9,3-3.3,5.2-4.4
			c2.2-1.1,4.7-1.6,7.6-1.6c2.4,0,4.5,0.4,6.2,1.2c1.8,0.8,3.2,1.9,4.2,3.3c1,1.4,1.5,3.1,1.5,5c0,1.7-0.4,3.4-1.1,4.9
			c-0.7,1.5-2.2,3.3-4.3,5.2l-7.4,7H150.6z"/>
		<rect x="3.2" y="3.2" class="st2" width="193.6" height="193.6"/>
	</g>
</g>
</svg>
