<svg id="Layer_1" data-name="Layer 1" xmlns="http://www.w3.org/2000/svg" xmlns:xlink="http://www.w3.org/1999/xlink" viewBox="0 0 595.28 549.11"><defs><style>.cls-1{fill:none;}.cls-2{clip-path:url(#clip-path);}.cls-3{fill:#fff;}.cls-4{fill:#121111;}</style><clipPath id="clip-path"><rect id="SVGID" class="cls-1" x="74.43" y="51.34" width="446.42" height="446.42"/></clipPath></defs><title>codepen</title><g class="cls-2"><path class="cls-3" d="M411.54,388.24H364.38V314.35c0-17.62-.35-40.29-24.5-40.29-24.58,0-28.35,19.18-28.35,39v75.16H264.31V236.36h45.26v20.71h.63c6.33-11.89,21.75-24.51,44.7-24.51,47.75,0,56.63,31.47,56.63,72.4ZM211.1,215.55a27.36,27.36,0,1,1,27.36-27.35h0a27.37,27.37,0,0,1-27.36,27.35M234.75,388.2H187.51V236.36h47.24ZM297.64,51.33c-123.28,0-223.21,99.94-223.21,223.21s99.93,223.22,223.21,223.22,223.21-99.9,223.21-223.21S420.93,51.34,297.64,51.34"/></g><path class="cls-4" d="M411.54,388.22H364.38v-73.9c0-17.62-.35-40.29-24.51-40.29-24.58,0-28.34,19.19-28.34,39v75.17H264.3V236.33h45.26V257h.64c6.33-11.89,21.75-24.5,44.69-24.5,47.75,0,56.64,31.47,56.64,72.4Z"/><path class="cls-4" d="M211.1,215.53a27.36,27.36,0,1,1,27.35-27.36h0a27.38,27.38,0,0,1-27.35,27.36"/><rect class="cls-4" x="187.51" y="236.33" width="47.24" height="151.84"/></svg>