<svg id="Layer_1" data-name="Layer 1" xmlns="http://www.w3.org/2000/svg" viewBox="0 0 595.28 549.11"><defs><style>.cls-1{fill:#fff;}.cls-2{fill:#121111;}</style></defs><title>codepen</title><path class="cls-1" d="M522.92,274.55c0,124.45-100.85,225.28-225.25,225.28S72.36,399,72.36,274.55,173.21,49.27,297.67,49.27,522.92,150.12,522.92,274.55Z"/><path id="twitter-4-icon" class="cls-2" d="M428.07,229.83c3.77,84.51-59.28,178.73-170.84,178.73a169.88,169.88,0,0,1-92.11-27,120.91,120.91,0,0,0,89-24.83A60.14,60.14,0,0,1,198,315a59.76,59.76,0,0,0,27.12-1,60,60,0,0,1-48.19-59.71,61,61,0,0,0,27.23,7.54,60.19,60.19,0,0,1-18.65-80.2,170.63,170.63,0,0,0,123.93,62.81,60.12,60.12,0,0,1,102.41-54.8A122.75,122.75,0,0,0,450,175a60.37,60.37,0,0,1-26.42,33.3,122,122,0,0,0,34.55-9.47A127.24,127.24,0,0,1,428.07,229.83Z"/></svg>