<?xml version="1.0" standalone="no"?>
<!DOCTYPE svg PUBLIC "-//W3C//DTD SVG 20010904//EN"
 "http://www.w3.org/TR/2001/REC-SVG-20010904/DTD/svg10.dtd">
<svg version="1.0" xmlns="http://www.w3.org/2000/svg"
 width="500.000000pt" height="500.000000pt" viewBox="0 0 500.000000 500.000000"
 preserveAspectRatio="xMidYMid meet">
<metadata>
Created by potrace 1.11, written by Peter Selinger 2001-2013
</metadata>
<g transform="translate(0.000000,500.000000) scale(0.100000,-0.100000)"
fill="#000000" stroke="none">
<path d="M0 2500 l0 -2500 2500 0 2500 0 0 2500 0 2500 -2500 0 -2500 0 0
-2500z m4650 350 l0 -1820 -170 0 -170 0 -2 -167 -3 -168 -162 -3 -163 -2 -2
-173 -3 -172 -1820 0 -1820 0 -3 1818 -2 1817 165 0 165 0 2 183 3 182 173 3
172 2 0 160 0 160 1820 0 1820 0 0 -1820z"/>
<path d="M1070 4485 l0 -135 1618 -2 1617 -3 3 -1627 2 -1628 145 0 145 0 0
1765 0 1765 -1765 0 -1765 0 0 -135z"/>
<path d="M720 4135 l0 -155 145 0 145 0 0 155 0 155 -145 0 -145 0 0 -155z"/>
<path d="M1070 4135 l0 -155 1453 -2 1452 -3 3 -1442 2 -1443 135 0 135 0 0
1600 0 1600 -1590 0 -1590 0 0 -155z"/>
<path d="M390 2155 l0 -1765 1765 0 1765 0 0 150 0 150 -1627 2 -1628 3 -3
1613 -2 1612 -135 0 -135 0 0 -1765z"/>
<path d="M720 2340 l0 -1580 1600 0 1600 0 0 135 0 135 -1455 0 -1455 0 0
1445 0 1445 -145 0 -145 0 0 -1580z"/>
<path d="M1070 2505 l0 -1415 1425 0 1425 0 0 1415 0 1415 -1425 0 -1425 0 0
-1415z m1238 -602 l2 -403 -405 0 -405 0 0 405 0 405 403 -2 402 -3 3 -402z"/>
<path d="M3980 895 l0 -135 135 0 135 0 0 135 0 135 -135 0 -135 0 0 -135z"/>
</g>
</svg>
