<?xml version="1.0" encoding="utf-8"?>
<!-- Generator: Adobe Illustrator 22.1.0, SVG Export Plug-In . SVG Version: 6.00 Build 0)  -->
<svg version="1.1" id="Layer_1" xmlns="http://www.w3.org/2000/svg" xmlns:xlink="http://www.w3.org/1999/xlink" x="0px" y="0px"
	 viewBox="0 0 595.3 549.1" style="enable-background:new 0 0 595.3 549.1;" xml:space="preserve">
<style type="text/css">
	.st0{fill:#121111;}
	.st1{clip-path:url(#SVGID_2_);}
</style>
<title>svg</title>
<g>
	<polygon class="st0" points="283.3,215.7 283.3,148.9 171.1,223.7 221.2,257.2 	"/>
	<polygon class="st0" points="159.6,250.5 159.6,298.5 195.5,274.5 	"/>
	<polygon class="st0" points="171.1,325.3 283.3,400.1 283.3,333.3 221.2,291.8 	"/>
	<polygon class="st0" points="424.2,223.8 312,148.9 312,215.8 374.1,257.2 	"/>
	<g>
		<defs>
			<rect id="SVGID_1_" x="74.4" y="51.4" width="446.4" height="446.4"/>
		</defs>
		<clipPath id="SVGID_2_">
			<use xlink:href="#SVGID_1_"  style="overflow:visible;"/>
		</clipPath>
		<g class="st1">
			<path class="st0" d="M458,337.3L305.6,438.9c-4.8,3.2-11.2,3.2-16,0L137.2,337.3c-3.9-2.7-6.3-7.2-6.3-11.9V223.7
				c0-4.8,2.4-9.2,6.3-11.9l152.4-101.6c4.8-3.2,11.2-3.2,16,0L458,211.8c3.9,2.7,6.3,7.1,6.3,11.9v101.6
				C464.3,330.1,461.9,334.6,458,337.3 M297.6,51.3c-123.3,0-223.2,99.9-223.2,223.2s99.9,223.2,223.2,223.2s223.2-99.9,223.2-223.2
				S420.9,51.3,297.6,51.3"/>
		</g>
	</g>
	<polygon class="st0" points="297.6,240.7 247,274.5 297.6,308.4 348.2,274.5 	"/>
	<polygon class="st0" points="435.7,298.5 435.7,250.6 399.8,274.5 	"/>
	<polygon class="st0" points="312,333.3 312,400.1 424.2,325.3 374.1,291.9 	"/>
</g>
</svg>
