<?xml version="1.0" encoding="utf-8"?>
<!-- Generator: Adobe Illustrator 22.1.0, SVG Export Plug-In . SVG Version: 6.00 Build 0)  -->
<svg version="1.1" id="Layer_1" xmlns="http://www.w3.org/2000/svg" xmlns:xlink="http://www.w3.org/1999/xlink" x="0px" y="0px"
	 viewBox="0 0 595.3 549.1" style="enable-background:new 0 0 595.3 549.1;" xml:space="preserve">
<style type="text/css">
	.st0{clip-path:url(#SVGID_2_);}
	.st1{fill:#121111;}
	.st2{fill:#FFFFFF;}
	.st3{fill:#FBFBFB;}
</style>
<title>svg</title>
<g>
	<defs>
		<rect id="SVGID_1_" x="70.8" y="49.6" width="453.7" height="448.1"/>
	</defs>
	<clipPath id="SVGID_2_">
		<use xlink:href="#SVGID_1_"  style="overflow:visible;"/>
	</clipPath>
	<g class="st0">
		<path class="st1" d="M524.5,273.7c0,123.8-101.6,224.1-226.9,224.1S70.8,397.4,70.8,273.7S172.4,49.6,297.6,49.6
			S524.5,149.9,524.5,273.7"/>
	</g>
</g>
<path id="path1_fill" class="st2" d="M253,408.5c24.7,0,44.6-20,44.6-44.6v-44.6H253c-24.7,0-44.6,20-44.6,44.6
	C208.4,388.5,228.3,408.5,253,408.5z"/>
<path id="path2_fill" class="st3" d="M208.4,274.5c0-24.7,20-44.6,44.6-44.6h44.6v89.3H253C228.3,319.2,208.4,299.2,208.4,274.5
	C208.4,274.5,208.4,274.5,208.4,274.5z"/>
<path id="path2_fill-2" class="st3" d="M208.4,185.3c0-24.7,20-44.6,44.6-44.6l0,0h44.6v89.3H253
	C228.3,229.9,208.4,209.9,208.4,185.3z"/>
<path id="path3_fill" class="st3" d="M297.6,140.6h44.6c24.7-0.4,44.9,19.3,45.3,44s-19.3,44.9-44,45.3c-0.4,0-0.9,0-1.3,0h-44.6
	V140.6z"/>
<path id="path4_fill" class="st2" d="M386.9,274.5c0,24.7-20,44.6-44.6,44.6c-24.7,0-44.6-20-44.6-44.6s20-44.6,44.6-44.6l0,0
	C366.9,229.9,386.9,249.9,386.9,274.5z"/>
</svg>
