<svg id="Layer_1" data-name="Layer 1" xmlns="http://www.w3.org/2000/svg" viewBox="0 0 595.28 549.11"><defs><style>.cls-1{fill:#fff;}.cls-2{fill:#121111;}</style></defs><title>codepen</title><path class="cls-1" d="M467.61,418.9l.13-.15q7.11-8.37,13.39-17.45a2.33,2.33,0,0,0,.17-.26c.81-1.16,1.6-2.33,2.38-3.51l.15-.21q6-9.18,11.21-19c.06-.11.12-.21.17-.32.66-1.25,1.31-2.51,2-3.78l.12-.23a220.59,220.59,0,0,0,8.91-20.33l.12-.36c.51-1.33,1-2.66,1.48-4l.09-.27a216.86,216.86,0,0,0,6.41-21.51,1.86,1.86,0,0,1,.1-.39c.34-1.4.67-2.8,1-4.21l.06-.3a221.56,221.56,0,0,0,3.74-22.49l.06-.47c.16-1.45.31-2.89.45-4.35V295q.84-9.27.92-18.75h0v-1.68c0-123.19-99.83-223-223-223h0c-123.16,0-223,99.84-223,223v1.85h0A226.6,226.6,0,0,0,76.08,300v.35c.16,1.51.35,3,.56,4.51h0a218.38,218.38,0,0,0,4.3,22.68.59.59,0,0,0,.08.36c.35,1.42.71,2.85,1.08,4.26a.29.29,0,0,1,0,.13A223.7,223.7,0,0,0,89,353.74c.06.14.11.29.17.43.51,1.32,1,2.63,1.55,4,0,.1.09.21.13.32q4.17,10.24,9.3,20c.1.19.2.38.31.57.62,1.18,1.25,2.35,1.91,3.52l.29.53q4.29,7.67,9.13,15l.07.1c.73,1.1,1.48,2.19,2.23,3.28l.48.69c.73,1,1.46,2.07,2.2,3.09l.51.71c.78,1.05,1.54,2.1,2.32,3.13.07.09.14.17.2.26q4,5.14,8.12,10.06l.19.24c.83,1,1.66,1.9,2.49,2.85l.69.77,2.43,2.68.76.81c.83.89,1.67,1.78,2.51,2.66l.53.54c2.9,3,5.87,5.94,8.91,8.7l.33.3c.88.83,1.78,1.63,2.69,2.43l.91.81,2.61,2.26,1,.85,2.67,2.22.85.68q4.74,3.83,9.67,7.39l.44.32c1,.68,1.91,1.35,2.87,2l1.12.77c.91.64,1.84,1.25,2.76,1.87l1.24.81c.94.62,1.87,1.22,2.82,1.82l1.11.69q5.27,3.22,10.56,6.2l.45.25c1,.56,2,1.09,3,1.63l1.29.68,3,1.49,1.42.71,3,1.43,1.33.62c1,.49,2.09,1,3.14,1.44l.46.2q3.79,1.69,7.67,3.25l.31.12c1.07.43,2.14.84,3.22,1.25l1.41.54,3.08,1.12,1.56.54,3.09,1.06,1.51.48,3.23,1,.9.27a224.22,224.22,0,0,0,122.57,1.86h0a222.25,222.25,0,0,0,72.82-34.78h0q9-6.54,17.29-13.93l.1-.08c1.09-1,2.16-1.95,3.23-3l.08-.08a218.44,218.44,0,0,0,15.41-15.77l.16-.17Q466.23,420.54,467.61,418.9Z"/><path class="cls-2" d="M241.09,454.23c-.08-11.82-.17-34.91-.17-45.77,0,0-64.56,13.86-78.11-27.48,0,0-10.51-26.85-25.64-33.75,0,0-21.12-14.49,1.48-14.21,0,0,23,1.84,35.63,23.76,20.2,35.63,54.05,25.36,67.23,19.27,2.12-14.76,8.12-25,14.76-31.08-51.55-5.72-103.57-13.19-103.57-101.91,0-25.36,7-38.09,21.78-54.32-2.41-6-10.24-30.69,2.4-62.62,19.27-6,63.63,24.9,63.63,24.9a217.86,217.86,0,0,1,115.82,0s44.36-31,63.63-24.9c12.64,32,4.8,56.63,2.39,62.62,14.76,16.32,23.76,29,23.76,54.32,0,89-54.31,96.1-105.92,102,8.5,7.28,15.68,21.12,15.68,42.79,0,19.42-.1,50.13-.18,66a204.9,204.9,0,0,1-114.65.45Z"/><path class="cls-1" d="M213.75,402.62c-2.67,0-4.79,1.47-4.79,3.33,0,2.11,2.12,3.59,5.16,3.31,2.68,0,4.8-1.47,4.8-3.31C218.92,403.83,216.52,402.34,213.75,402.62Z"/><path class="cls-1" d="M231,400.22c-2.68.65-4.52,2.4-4.24,4.53.27,1.84,2.67,3,5.44,2.39s4.51-2.39,4.24-4.24S233.68,399.94,231,400.22Z"/><path class="cls-1" d="M190.24,401.8c-.65,1.84,1.2,4,4,4.51,2.39.92,5.17,0,5.72-1.84s-1.2-4-4-4.8C193.56,399,190.88,399.94,190.24,401.8Z"/><path class="cls-1" d="M175.48,390.27c-1.47,1.19-.92,4,1.2,5.72,2.12,2.12,4.8,2.39,6,.92,1.19-1.2.64-4-1.2-5.72C179.45,389.05,176.68,388.79,175.48,390.27Z"/><path class="cls-1" d="M165,376.71c-1.48.93-1.48,3.32,0,5.44s4,3.05,5.16,2.12c1.48-1.2,1.48-3.6,0-5.71C168.84,376.43,166.44,375.51,165,376.71Z"/><path class="cls-1" d="M145.59,357.43c-.65,1.2.27,2.68,2.12,3.61,1.48.92,3.32.64,4-.66s-.27-2.67-2.11-3.59C147.72,356.23,146.24,356.51,145.59,357.43Z"/><path class="cls-1" d="M155.55,364.91c-1.19.92-.92,3,.66,4.79,1.47,1.47,3.59,2.13,4.79.92,1.2-.92.92-3-.65-4.79C158.88,364.35,156.76,363.71,155.55,364.91Z"/></svg>