<?xml version="1.0" encoding="utf-8"?>
<!-- Generator: Adobe Illustrator 22.1.0, SVG Export Plug-In . SVG Version: 6.00 Build 0)  -->
<svg version="1.1" id="Layer_1" xmlns="http://www.w3.org/2000/svg" xmlns:xlink="http://www.w3.org/1999/xlink" x="0px" y="0px"
	 viewBox="0 0 595.3 549.1" style="enable-background:new 0 0 595.3 549.1;" xml:space="preserve">
<style type="text/css">
	.st0{fill:#121111;}
</style>
<title>svg_icon_gh-edited</title>
<path class="st0" d="M216.9,418.7c-2.7,0-4.8,1.5-4.8,3.4c0,2.1,2.1,3.6,5.2,3.4c2.7,0,4.8-1.5,4.8-3.4
	C222.1,419.9,219.7,418.4,216.9,418.7z"/>
<path class="st0" d="M234.3,416.3c-2.7,0.6-4.6,2.4-4.3,4.6c0.3,1.9,2.7,3.1,5.5,2.4s4.6-2.4,4.3-4.3S237,416,234.3,416.3z"/>
<path class="st0" d="M193.1,417.9c-0.7,1.9,1.2,4,4,4.6c2.4,0.9,5.2,0,5.8-1.9s-1.2-4-4-4.9C196.5,415.1,193.8,416,193.1,417.9z"/>
<path class="st0" d="M178.2,406.2c-1.5,1.2-0.9,4,1.2,5.8c2.1,2.1,4.9,2.4,6.1,0.9c1.2-1.2,0.6-4-1.2-5.8
	C182.2,405,179.4,404.7,178.2,406.2z"/>
<path class="st0" d="M167.6,392.5c-1.5,0.9-1.5,3.4,0,5.5s4,3.1,5.2,2.1c1.5-1.2,1.5-3.6,0-5.8C171.5,392.2,169.1,391.3,167.6,392.5
	z"/>
<path class="st0" d="M148,373.1c-0.6,1.2,0.3,2.7,2.1,3.6c1.5,0.9,3.4,0.6,4-0.7s-0.3-2.7-2.1-3.6
	C150.2,371.9,148.7,372.1,148,373.1z"/>
<path class="st0" d="M158.1,380.6c-1.2,0.9-0.9,3.1,0.7,4.8c1.5,1.5,3.6,2.1,4.8,0.9c1.2-0.9,0.9-3.1-0.6-4.8
	C161.4,380,159.3,379.4,158.1,380.6z"/>
<path class="st0" d="M469.4,420.4l0.1-0.1c4.8-5.6,9.3-11.5,13.5-17.6c0.1-0.1,0.1-0.2,0.2-0.3c0.8-1.2,1.6-2.4,2.4-3.5l0.1-0.2
	c4.1-6.2,7.9-12.6,11.3-19.1c0.1-0.1,0.1-0.2,0.2-0.3c0.7-1.3,1.3-2.5,2-3.8l0.1-0.2c3.3-6.7,6.3-13.5,9-20.5l0.1-0.4
	c0.5-1.3,1-2.7,1.5-4l0.1-0.3c2.5-7.1,4.7-14.4,6.5-21.7c0-0.1,0.1-0.3,0.1-0.4c0.3-1.4,0.7-2.8,1-4.2l0.1-0.3
	c1.6-7.5,2.9-15.1,3.8-22.7l0.1-0.5c0.2-1.5,0.3-2.9,0.5-4.4v-0.4c0.6-6.2,0.9-12.6,0.9-18.9l0,0c0-0.6,0-1.1,0-1.7
	c0-124.5-100.9-225.3-225.3-225.3l0,0c-124.4,0-225.3,100.9-225.3,225.3c0,0.6,0,1.2,0,1.9l0,0c0.1,8,0.6,15.9,1.4,23.8v0.4
	c0.2,1.5,0.4,3,0.6,4.5l0,0c1,7.7,2.5,15.4,4.3,22.9c0,0.1,0,0.2,0.1,0.4c0.4,1.4,0.7,2.9,1.1,4.3c0,0,0,0.1,0,0.1
	c2,7.3,4.3,14.6,7,21.7c0.1,0.1,0.1,0.3,0.2,0.4c0.5,1.3,1,2.7,1.6,4c0,0.1,0.1,0.2,0.1,0.3c2.8,6.9,5.9,13.6,9.4,20.2
	c0.1,0.2,0.2,0.4,0.3,0.6c0.6,1.2,1.3,2.4,1.9,3.6l0.3,0.5c2.9,5.2,6,10.2,9.2,15.1l0.1,0.1c0.7,1.1,1.5,2.2,2.2,3.3l0.5,0.7
	c0.7,1.1,1.5,2.1,2.2,3.1l0.5,0.7c0.8,1.1,1.6,2.1,2.3,3.2c0.1,0.1,0.1,0.2,0.2,0.3c2.7,3.5,5.4,6.9,8.2,10.2l0.2,0.2
	c0.8,1,1.7,1.9,2.5,2.9l0.7,0.8l2.4,2.7l0.8,0.8c0.8,0.9,1.7,1.8,2.5,2.7l0.5,0.5c2.9,3,5.9,6,9,8.8l0.3,0.3
	c0.9,0.8,1.8,1.6,2.7,2.5l0.9,0.8l2.6,2.3l1,0.9c0.9,0.8,1.8,1.5,2.7,2.2l0.9,0.7c3.2,2.6,6.4,5.1,9.8,7.5l0.4,0.3
	c1,0.7,1.9,1.4,2.9,2l1.1,0.8c0.9,0.6,1.9,1.3,2.8,1.9l1.2,0.8c0.9,0.6,1.9,1.2,2.9,1.8l1.1,0.7c3.5,2.2,7.1,4.3,10.7,6.3l0.4,0.3
	c1,0.6,2,1.1,3.1,1.6l1.3,0.7c1,0.5,2,1,3,1.5l1.4,0.7l3,1.5l1.4,0.6c1.1,0.5,2.1,1,3.2,1.5l0.5,0.2c2.6,1.1,5.1,2.2,7.8,3.3
	l0.3,0.1c1.1,0.4,2.2,0.8,3.2,1.3l1.4,0.5l3.1,1.1l1.6,0.5l3.1,1.1l1.5,0.5l3.3,1l0.9,0.3c40.3,12.1,83.2,12.8,123.8,1.9l0,0
	c26.5-7.1,51.4-19,73.6-35.1l0,0c6.1-4.4,11.9-9.1,17.5-14.1l0.1-0.1c1.1-1,2.2-2,3.3-3l0.1-0.1c5.5-5,10.6-10.4,15.6-15.9l0.2-0.2
	C467.5,422.6,468.4,421.5,469.4,420.4z M240.5,472.5c-0.1-11.9-0.2-26.8-0.2-37.7c0,0-65.2,14-78.9-27.8c0,0-10.6-27.1-25.9-34.1
	c0,0-21.3-14.6,1.5-14.4c0,0,23.2,1.9,36,24c20.4,36,54.6,25.6,67.9,19.5c2.1-14.9,8.2-25.2,14.9-31.4
	c-52.1-5.8-104.6-13.3-104.6-103c0-25.6,7.1-38.5,22-54.9c-2.4-6.1-10.3-31,2.4-63.3c19.5-6.1,64.3,25.2,64.3,25.2
	c38.3-10.6,78.7-10.6,117,0c0,0,44.8-31.3,64.3-25.2c12.8,32.3,4.9,57.2,2.4,63.3c14.9,16.5,24,29.4,24,54.9
	c0,89.9-54.9,97.1-107,103c8.6,7.4,15.8,21.3,15.8,43.2c0,19.6-0.1,42.1-0.2,58.1C318.5,483.2,278.3,483.3,240.5,472.5L240.5,472.5z
	"/>
</svg>
