<?xml version="1.0" encoding="utf-8"?>
<!-- Generator: Adobe Illustrator 22.1.0, SVG Export Plug-In . SVG Version: 6.00 Build 0)  -->
<svg version="1.1" id="Layer_1" xmlns="http://www.w3.org/2000/svg" xmlns:xlink="http://www.w3.org/1999/xlink" x="0px" y="0px"
	 viewBox="0 0 595.3 549.1" style="enable-background:new 0 0 595.3 549.1;" xml:space="preserve">
<style type="text/css">
	.st0{clip-path:url(#SVGID_2_);}
	.st1{fill:#121111;}
</style>
<title>svg</title>
<g>
	<defs>
		<rect id="SVGID_1_" x="72.4" y="49.3" width="450.6" height="450.6"/>
	</defs>
	<clipPath id="SVGID_2_">
		<use xlink:href="#SVGID_1_"  style="overflow:visible;"/>
	</clipPath>
	<g class="st0">
		<path class="st1" d="M412.6,389.3H365v-74.6c0-17.8-0.4-40.7-24.7-40.7c-24.8,0-28.6,19.4-28.6,39.4v75.9H264V236h45.7v20.9h0.6
			c6.4-12,22-24.7,45.1-24.7c48.2,0,57.2,31.8,57.2,73.1L412.6,389.3z M210.3,215c-15.2,0-27.6-12.4-27.6-27.6s12.4-27.6,27.6-27.6
			s27.6,12.4,27.6,27.6l0,0C237.9,202.6,225.5,215,210.3,215 M234.2,389.2h-47.7V236h47.7L234.2,389.2z M297.6,49.2
			c-124.4,0-225.3,100.9-225.3,225.3s100.9,225.3,225.3,225.3S522.9,399,522.9,274.5S422.1,49.3,297.6,49.2"/>
	</g>
</g>
</svg>
