<svg id="Layer_1" data-name="Layer 1" xmlns="http://www.w3.org/2000/svg" xmlns:xlink="http://www.w3.org/1999/xlink" viewBox="0 0 595.28 549.11">
  <defs>
    <style>
      .cls-1 {
        fill: none;
      }

      .cls-2 {
        clip-path: url(#clip-path);
      }

      .cls-3 {
        fill: #333;
      }
    </style>
    <clipPath id="clip-path">
      <rect class="cls-1" x="72.36" y="49.27" width="450.56" height="450.56"/>
    </clipPath>
  </defs>
  <title>svg</title>
  <g class="cls-2">
    <path class="cls-3" d="M412.6,389.29H365V314.71c0-17.78-.35-40.66-24.73-40.66-24.81,0-28.61,19.36-28.61,39.38v75.86H264V236h45.68V256.9h.64c6.39-12,21.95-24.73,45.11-24.73,48.19,0,57.16,31.76,57.16,73.07ZM210.3,215a27.61,27.61,0,1,1,27.61-27.61A27.63,27.63,0,0,1,210.3,215m23.87,174.25H186.49V236h47.68Zm63.47-340c-124.42,0-225.28,100.87-225.28,225.28S173.22,499.83,297.64,499.83,522.92,399,522.92,274.55,422.07,49.27,297.64,49.27"/>
  </g>
</svg>
