<svg id="Layer_1" data-name="Layer 1" xmlns="http://www.w3.org/2000/svg" xmlns:xlink="http://www.w3.org/1999/xlink" viewBox="0 0 595.28 549.11">
  <defs>
    <style>
      .cls-1 {
        fill: none;
      }

      .cls-2 {
        fill: #333;
      }

      .cls-3 {
        clip-path: url(#clip-path);
      }
    </style>
    <clipPath id="clip-path">
      <rect class="cls-1" x="74.44" y="51.36" width="446.39" height="446.39"/>
    </clipPath>
  </defs>
  <title>svg</title>
  <g>
    <polygon class="cls-2" points="283.31 215.74 283.31 148.94 171.11 223.74 221.16 257.24 283.31 215.74"/>
    <polygon class="cls-2" points="159.57 250.54 159.57 298.54 195.48 274.54 159.57 250.54"/>
    <polygon class="cls-2" points="171.11 325.34 283.31 400.14 283.31 333.34 221.16 291.84 171.11 325.34"/>
    <polygon class="cls-2" points="424.17 223.75 311.97 148.94 311.97 215.75 374.12 257.24 424.17 223.75"/>
    <g class="cls-3">
      <path class="cls-2" d="M458,337.26,305.64,438.86a14.48,14.48,0,0,1-16,0L137.25,337.26a14.6,14.6,0,0,1-6.33-11.93V223.74a14.56,14.56,0,0,1,6.33-11.9L289.64,110.25a14.46,14.46,0,0,1,16,0L458,211.84a14.56,14.56,0,0,1,6.33,11.9V325.33A14.6,14.6,0,0,1,458,337.26M297.64,51.35c-123.28,0-223.2,99.94-223.2,223.2s99.92,223.19,223.2,223.19,223.2-99.92,223.2-223.19-99.93-223.2-223.2-223.2"/>
    </g>
    <polygon class="cls-2" points="297.64 240.68 247.03 274.54 297.64 308.41 348.25 274.54 297.64 240.68"/>
    <polygon class="cls-2" points="435.7 298.55 435.7 250.55 399.8 274.55 435.7 298.55"/>
    <polygon class="cls-2" points="311.97 333.34 311.97 400.14 424.17 325.34 374.11 291.85 311.97 333.34"/>
  </g>
</svg>
