<svg id="Layer_1" data-name="Layer 1" xmlns="http://www.w3.org/2000/svg" xmlns:xlink="http://www.w3.org/1999/xlink" viewBox="0 0 1784.7 450.58"><defs><style>.cls-1{fill:none;}.cls-2{fill:#333;}.cls-3{fill:#fff;}.cls-4{clip-path:url(#clip-path);}</style><clipPath id="clip-path" transform="translate(-72.36 -49.25)"><rect class="cls-1" x="72.36" y="49.27" width="450.56" height="450.56"/></clipPath></defs><title>svg_icon_github-edited</title><path class="cls-2" d="M1190.25,274.55C1190.25,399,1089.4,499.83,965,499.83S739.69,399,739.69,274.55,840.54,49.27,965,49.27,1190.25,150.12,1190.25,274.55Z" transform="translate(-72.36 -49.25)"/><path id="twitter-4-icon" class="cls-3" d="M1055.17,227.82c2.9,65-45.59,137.46-131.39,137.46a130.66,130.66,0,0,1-70.84-20.77,93,93,0,0,0,68.47-19.1,46.25,46.25,0,0,1-43.21-32.12,46.05,46.05,0,0,0,20.86-.79,46.18,46.18,0,0,1-37-45.93,46.82,46.82,0,0,0,20.94,5.8,46.29,46.29,0,0,1-14.34-61.68A131.21,131.21,0,0,0,963.91,239a46.24,46.24,0,0,1,78.76-42.15,94.32,94.32,0,0,0,29.39-11.18,46.44,46.44,0,0,1-20.32,25.61,93.8,93.8,0,0,0,26.57-7.31A97.69,97.69,0,0,1,1055.17,227.82Z" transform="translate(-72.36 -49.25)"/><g class="cls-4"><path class="cls-2" d="M412.6,389.29H365V314.71c0-17.78-.35-40.66-24.73-40.66-24.81,0-28.61,19.36-28.61,39.38v75.86H264V236h45.68v20.9h.64c6.39-12,21.95-24.73,45.11-24.73,48.19,0,57.16,31.76,57.16,73.07ZM210.3,215a27.61,27.61,0,1,1,27.61-27.61h0A27.63,27.63,0,0,1,210.3,215m23.87,174.25H186.49V236h47.68Zm63.47-340c-124.42,0-225.28,100.87-225.28,225.28s100.86,225.3,225.28,225.3S522.92,399,522.92,274.55,422.07,49.27,297.64,49.27" transform="translate(-72.36 -49.25)"/></g><path class="cls-2" d="M1549.51,412.06c0,1.86-2.15,3.35-4.85,3.35-3.07.28-5.22-1.21-5.22-3.35,0-1.87,2.15-3.36,4.85-3.36C1547.08,408.42,1549.51,409.91,1549.51,412.06Zm-29-4.2c-.65,1.87,1.21,4,4,4.57,2.42.93,5.21,0,5.77-1.86s-1.21-4-4-4.85c-2.43-.65-5.13.28-5.78,2.14Zm41.18-1.58c-2.7.65-4.56,2.42-4.28,4.57.28,1.86,2.7,3.07,5.49,2.42s4.57-2.42,4.29-4.29S1564.41,406,1561.71,406.28Zm61.31-357c-129.23,0-228.08,98.11-228.08,227.34,0,103.32,65,191.74,157.92,222.86,11.93,2.14,16.12-5.22,16.12-11.27,0-5.78-.28-37.64-.28-57.21,0,0-65.22,14-78.92-27.76,0,0-10.62-27.12-25.9-34.11,0,0-21.33-14.62,1.49-14.34,0,0,23.2,1.86,36,24,20.4,36,54.6,25.63,67.92,19.48,2.14-14.91,8.2-25.25,14.91-31.4-52.09-5.78-104.63-13.32-104.63-102.95,0-25.63,7.08-38.48,22-54.88-2.42-6.06-10.34-31,2.43-63.27,19.47-6.05,64.28,25.16,64.28,25.16a220.12,220.12,0,0,1,117,0s44.81-31.3,64.28-25.16c12.77,32.33,4.85,57.21,2.43,63.27,14.9,16.49,24,29.35,24,54.88,0,89.9-54.87,97.08-107,103,8.58,7.36,15.84,21.33,15.84,43.23,0,31.4-.28,70.25-.28,77.89,0,6.06,4.29,13.42,16.12,11.27,93.17-30.93,156.34-119.35,156.34-222.67C1857.06,147.36,1752.25,49.25,1623,49.25ZM1485.5,370.6c-1.21.93-.93,3.07.65,4.84,1.49,1.49,3.63,2.14,4.85.93,1.21-.93.93-3.07-.66-4.84C1488.85,370,1486.71,369.38,1485.5,370.6Zm-10.06-7.55c-.66,1.21.28,2.7,2.14,3.63,1.49.93,3.35.65,4-.65s-.28-2.7-2.15-3.63C1477.58,361.84,1476.09,362.12,1475.44,363.05Zm30.18,33.17c-1.49,1.21-.93,4,1.21,5.77,2.15,2.15,4.85,2.43,6.06.94,1.21-1.22.65-4-1.21-5.78C1509.63,395,1506.83,394.73,1505.62,396.22ZM1495,382.52c-1.49.93-1.49,3.36,0,5.5s4,3.07,5.22,2.14c1.49-1.21,1.49-3.63,0-5.78-1.3-2.14-3.73-3.07-5.22-1.86Z" transform="translate(-72.36 -49.25)"/></svg>