<svg id="Layer_1" data-name="Layer 1" xmlns="http://www.w3.org/2000/svg" xmlns:xlink="http://www.w3.org/1999/xlink" viewBox="0 0 595.28 549.11">
  <defs>
    <style>
      .cls-1 {
        fill: none;
      }

      .cls-2 {
        clip-path: url(#clip-path);
      }

      .cls-3 {
        fill: #333;
      }
    </style>
    <clipPath id="clip-path">
      <rect class="cls-1" x="72.36" y="49.27" width="450.56" height="450.56"/>
    </clipPath>
  </defs>
  <title>svg</title>
  <g class="cls-2">
    <path class="cls-3" d="M186.49,345a2.13,2.13,0,0,1-3.09.51c-1.43-.71-2.14-1.86-1.65-2.8.51-.71,1.65-.93,3.09-.51,1.43.74,2.16,1.88,1.65,2.8m7.25,8c-.94.93-2.59.43-3.74-.72-1.22-1.37-1.43-3-.49-3.73.92-.93,2.57-.43,3.72.73,1.22,1.35,1.43,3,.51,3.72m7.09,10.61c-.93.72-2.87,0-4-1.65s-1.16-3.51,0-4.23c1.14-.94,3-.22,4,1.43s1.14,3.52,0,4.45m9.76,9.83c-.94,1.14-3,.93-4.66-.72-1.66-1.37-2.08-3.51-.94-4.45.94-1.14,3.08-.94,4.66.72,1.43,1.36,1.87,3.51.94,4.45M224,379.25c-.41,1.43-2.57,2.14-4.43,1.43-2.16-.43-3.59-2.08-3.08-3.51s2.57-2.15,4.45-1.66c2.14.65,3.51,2.31,3.06,3.74m14.79,1.14c0,1.43-1.66,2.59-3.74,2.59-2.37.21-4-.93-4-2.59,0-1.43,1.63-2.57,3.72-2.57,2.16-.22,4,.92,4,2.57m10.33.94c-2.16.49-4-.43-4.24-1.88-.21-1.63,1.22-3,3.3-3.51,2.08-.2,4,.72,4.23,2.08s-1.22,2.8-3.29,3.31m106,66.19c-9.11,1.65-12.4-4-12.4-8.68,0-5.88.21-35.78.21-60,0-16.85-5.6-27.61-12.19-33.27,40.09-4.51,82.32-10,82.32-79.23,0-19.65-7-29.55-18.49-42.25,1.86-4.66,7.95-23.8-1.87-48.69-15-4.74-49.48,19.36-49.48,19.36a169.56,169.56,0,0,0-90.07,0s-34.49-24-49.48-19.36c-9.82,24.81-3.73,44-1.87,48.69-11.46,12.62-16.92,22.52-16.92,42.25,0,69,40.44,74.78,80.53,79.23-5.17,4.74-9.82,12.7-11.48,24.16-10.25,4.74-36.57,12.7-52.28-15A37.89,37.89,0,0,0,174,336.28c-17.56-.2-1.14,11.05-1.14,11.05,11.76,5.39,19.93,26.24,19.93,26.24C203.34,405.71,253.53,395,253.53,395c0,15.06.23,39.58.23,44,0,4.66-3.23,10.33-12.42,8.68-71.49-24-121.55-92-121.55-171.54,0-99.45,76.09-175,175.55-175s180.14,75.52,180.14,175c0,79.54-48.61,147.59-120.33,171.4M297.64,49.27c-124.42,0-225.28,100.87-225.28,225.28S173.22,499.83,297.64,499.83,522.92,399,522.92,274.55,422.07,49.27,297.64,49.27"/>
  </g>
</svg>
