<?xml version="1.0" encoding="utf-8"?>
<!-- Generator: Adobe Illustrator 22.1.0, SVG Export Plug-In . SVG Version: 6.00 Build 0)  -->
<svg version="1.1" id="Layer_1" xmlns="http://www.w3.org/2000/svg" xmlns:xlink="http://www.w3.org/1999/xlink" x="0px" y="0px"
	 viewBox="0 0 595.3 549.1" style="enable-background:new 0 0 595.3 549.1;" xml:space="preserve">
<style type="text/css">
	.st0{fill:#121111;}
	.st1{fill:#FFFFFF;}
</style>
<title>svg_icon_twitter</title>
<path class="st0" d="M524.2,274.5c0,124.5-100.9,225.3-225.2,225.3S73.7,399,73.7,274.5S174.5,49.3,299,49.3
	S524.2,150.1,524.2,274.5z"/>
<path id="twitter-4-icon" class="st1" d="M389.2,227.8c2.9,65-45.6,137.5-131.4,137.5c-25.1,0-49.7-7.2-70.8-20.8
	c24.5,3,49.1-3.9,68.5-19.1c-19.8-0.4-37.2-13.3-43.2-32.1c6.9,1.3,14.1,1.1,20.9-0.8c-21.8-4.4-37.4-23.7-37.1-45.9
	c6.4,3.5,13.6,5.5,20.9,5.8c-20.3-13.6-26.6-40.6-14.3-61.7c23.5,28.9,58.1,46.5,95.3,48.3c-5.8-24.9,9.6-49.7,34.5-55.6
	c16.1-3.8,33,1.3,44.3,13.4c10.4-2.1,20.3-5.8,29.4-11.2c-3.4,10.7-10.7,19.8-20.3,25.6c9.2-1.1,18.1-3.6,26.6-7.3
	C406,213.2,398.2,221.3,389.2,227.8z"/>
</svg>
