<svg id="Layer_1" data-name="Layer 1" xmlns="http://www.w3.org/2000/svg" viewBox="0 0 595.28 549.11"><defs><style>.cls-1{fill:#fff;}.cls-2{fill:#121111;}</style></defs><title>codepen</title><circle class="cls-1" cx="297.64" cy="274.55" r="223.21"/><path class="cls-2" d="M289.65,110.26,137.26,211.85a14.61,14.61,0,0,0-6.33,11.9V325.34a14.61,14.61,0,0,0,6.33,11.93l152.39,101.6a14.5,14.5,0,0,0,16,0L458,337.28a14.62,14.62,0,0,0,6.34-11.93V223.75A14.56,14.56,0,0,0,458,211.86L305.65,110.26A14.5,14.5,0,0,0,289.65,110.26ZM283.33,149v66.8l-62.15,41.5-50.06-33.5ZM159.58,250.51l35.91,24-35.91,24Zm123.75,149.6-112.21-74.8,50.06-33.5,62.15,41.5Zm14.32-91.73-50.6-33.87,50.6-33.86,50.61,33.86ZM312,400.16v-66.8l62.14-41.49,50.07,33.49Zm123.71-101.6-35.89-24,35.89-24ZM312,149l112.21,74.81-50.06,33.49L312,215.76Z"/></svg>