<svg id="Layer_1" data-name="Layer 1" xmlns="http://www.w3.org/2000/svg" viewBox="0 0 595.28 549.11"><defs><style>.cls-1{fill:#fff;}</style></defs><title>codepen copy</title><circle class="cls-1" cx="297.64" cy="282.04" r="223.21"/><path d="M289.65,117.75,137.26,219.34a14.6,14.6,0,0,0-6.33,11.9V332.83a14.62,14.62,0,0,0,6.33,11.93l152.39,101.6a14.5,14.5,0,0,0,16,0L458,344.76a14.61,14.61,0,0,0,6.34-11.93V231.24a14.58,14.58,0,0,0-6.34-11.9L305.65,117.75A14.46,14.46,0,0,0,289.65,117.75Zm-6.32,38.69v66.8l-62.15,41.5-50.06-33.5ZM159.58,258l35.91,24-35.91,24Zm123.75,149.6-112.21-74.8,50.06-33.5,62.15,41.5Zm14.32-91.73L247.05,282l50.6-33.86L348.26,282ZM312,407.64v-66.8l62.14-41.49,50.07,33.49ZM435.71,306.05l-35.89-24,35.89-24ZM312,156.44l112.21,74.81-50.06,33.49L312,223.25Z"/></svg>