<svg id="Layer_1" data-name="Layer 1" xmlns="http://www.w3.org/2000/svg" viewBox="0 0 595.28 549.11"><defs><style>.cls-1{fill:#333;}</style></defs><title>svg_icon_gh-edited</title><path class="cls-1" d="M216.86,418.71c-2.7,0-4.84,1.49-4.84,3.36,0,2.14,2.14,3.63,5.22,3.35,2.7,0,4.84-1.49,4.84-3.35C222.08,419.93,219.66,418.43,216.86,418.71Z"/><path class="cls-1" d="M234.29,416.29c-2.71.65-4.57,2.42-4.29,4.57.28,1.86,2.7,3.07,5.5,2.42s4.56-2.42,4.28-4.29S237,416,234.29,416.29Z"/><path class="cls-1" d="M193.11,417.88c-.66,1.86,1.21,4,4,4.56,2.42.93,5.22,0,5.78-1.86s-1.21-4-4-4.85C196.46,415.08,193.76,416,193.11,417.88Z"/><path class="cls-1" d="M178.2,406.23c-1.49,1.21-.93,4,1.21,5.78,2.14,2.14,4.85,2.42,6.06.93,1.21-1.21.65-4-1.21-5.78C182.21,405,179.41,404.74,178.2,406.23Z"/><path class="cls-1" d="M167.58,392.53c-1.49.94-1.49,3.36,0,5.5s4,3.08,5.22,2.14c1.49-1.21,1.49-3.63,0-5.77C171.49,392.25,169.07,391.32,167.58,392.53Z"/><path class="cls-1" d="M148,373.06c-.65,1.21.28,2.7,2.15,3.64,1.49.93,3.35.65,4-.66s-.28-2.7-2.14-3.63C150.16,371.85,148.66,372.13,148,373.06Z"/><path class="cls-1" d="M158.07,380.61c-1.21.93-.93,3.07.66,4.84,1.49,1.49,3.63,2.15,4.84.93,1.21-.93.93-3.07-.65-4.84C161.43,380.05,159.29,379.4,158.07,380.61Z"/><path class="cls-1" d="M469.35,420.39l.13-.15q7.18-8.46,13.53-17.63a2.33,2.33,0,0,0,.17-.26c.82-1.17,1.62-2.35,2.4-3.55l.15-.21q6.12-9.27,11.33-19.15c.06-.11.12-.22.17-.33.67-1.26,1.32-2.53,2-3.81l.12-.24q5-10,9-20.54l.13-.36c.51-1.34,1-2.69,1.49-4.05l.09-.27a220.29,220.29,0,0,0,6.48-21.73c0-.13.07-.27.1-.4.34-1.41.67-2.83,1-4.25l.06-.3a223.31,223.31,0,0,0,3.78-22.72l.06-.48c.16-1.46.31-2.92.45-4.39l0-.36q.85-9.36.93-18.94h0c0-.57,0-1.13,0-1.69,0-124.46-100.85-225.29-225.28-225.29h0c-124.42,0-225.28,100.87-225.28,225.27,0,.63,0,1.25,0,1.87h0a228.55,228.55,0,0,0,1.45,23.83l0,.35c.17,1.52.36,3,.57,4.55h0a222.27,222.27,0,0,0,4.34,22.92c0,.12,0,.24.08.36.36,1.44.72,2.88,1.1,4.3a.74.74,0,0,1,0,.14,223.86,223.86,0,0,0,7,21.69c.06.14.11.29.17.43.51,1.33,1,2.66,1.56,4,0,.1.09.21.13.32q4.22,10.36,9.4,20.2c.1.19.2.38.31.57.63,1.2,1.27,2.38,1.93,3.56l.3.54q4.32,7.74,9.22,15.11l.07.1c.74,1.11,1.49,2.21,2.25,3.31l.49.7q1.1,1.58,2.22,3.12l.52.72c.78,1.06,1.55,2.12,2.34,3.16.07.09.14.17.2.26q4,5.21,8.2,10.17l.2.24c.83,1,1.67,1.92,2.51,2.88l.7.78,2.45,2.7.77.82c.84.9,1.69,1.8,2.54,2.69l.53.54c2.93,3,5.93,6,9,8.79l.34.31c.89.83,1.8,1.64,2.71,2.45l.92.82,2.64,2.28,1,.86c.9.76,1.8,1.5,2.7,2.24l.86.69q4.78,3.87,9.77,7.47l.44.32c1,.69,1.93,1.36,2.9,2l1.13.78c.92.64,1.86,1.26,2.79,1.89l1.25.82c.95.62,1.89,1.23,2.85,1.83l1.12.7Q183.65,469,189,472l.45.26c1,.56,2,1.1,3.07,1.64l1.3.69c1,.51,2,1,3,1.51l1.43.71,3,1.45,1.35.62c1.05.5,2.11,1,3.17,1.46l.46.2q3.84,1.71,7.75,3.28l.32.13c1.08.43,2.16.84,3.25,1.26l1.42.54,3.11,1.13,1.58.55,3.12,1.07,1.53.49,3.26,1,.91.27a226.56,226.56,0,0,0,123.82,1.88h0A224.54,224.54,0,0,0,429.87,457h0q9.09-6.6,17.47-14.07l.1-.08q1.64-1.46,3.26-3l.08-.08q8.18-7.57,15.57-15.93l.16-.18C467.47,422.58,468.42,421.49,469.35,420.39ZM240.51,472.45c-.08-11.94-.17-26.77-.17-37.74,0,0-65.22,14-78.91-27.76,0,0-10.62-27.12-25.9-34.1,0,0-21.34-14.63,1.49-14.35,0,0,23.2,1.86,36,24,20.4,36,54.6,25.62,67.92,19.47,2.14-14.91,8.2-25.25,14.91-31.4-52.08-5.78-104.63-13.32-104.63-102.95,0-25.62,7.08-38.48,22-54.88-2.43-6.05-10.34-31,2.42-63.26,19.47-6.05,64.29,25.16,64.29,25.16a220.09,220.09,0,0,1,117,0s44.81-31.31,64.28-25.16c12.77,32.33,4.85,57.21,2.42,63.26,14.91,16.49,24,29.35,24,54.88,0,89.91-54.87,97.08-107,103,8.58,7.36,15.84,21.34,15.84,43.23,0,19.62-.11,42.14-.19,58.15a206.93,206.93,0,0,1-115.82.46Z"/></svg>