<svg xmlns="http://www.w3.org/2000/svg" viewBox="0 0 462.13 450.58"><defs><style>.cls-1{fill:#333;}</style></defs><title>Asset 1</title><g id="Layer_2" data-name="Layer 2"><g id="Layer_1-2" data-name="Layer 1"><path class="cls-1" d="M154.57,362.81c0,1.86-2.14,3.35-4.84,3.35-3.08.28-5.22-1.21-5.22-3.35,0-1.87,2.14-3.36,4.84-3.36C152.15,359.17,154.57,360.66,154.57,362.81Zm-29-4.2c-.65,1.87,1.22,4,4,4.57,2.42.93,5.22,0,5.78-1.86s-1.21-4-4-4.85c-2.42-.65-5.12.28-5.78,2.14ZM166.78,357c-2.71.65-4.57,2.42-4.29,4.57.28,1.86,2.7,3.07,5.5,2.42s4.56-2.42,4.28-4.29S169.48,356.75,166.78,357ZM228.08,0C98.85,0,0,98.11,0,227.34,0,330.66,65,419.08,157.92,450.2,169.85,452.34,174,445,174,438.93c0-5.78-.28-37.64-.28-57.21,0,0-65.22,14-78.91-27.76,0,0-10.62-27.12-25.9-34.11,0,0-21.34-14.62,1.49-14.34,0,0,23.2,1.86,36,24,20.41,36,54.6,25.63,67.92,19.48,2.15-14.91,8.2-25.25,14.91-31.4-52.08-5.78-104.63-13.32-104.63-103,0-25.63,7.08-38.48,22-54.88-2.43-6.06-10.34-31,2.42-63.27,19.47-6,64.29,25.16,64.29,25.16a220.09,220.09,0,0,1,117,0s44.81-31.3,64.29-25.16c12.76,32.33,4.84,57.21,2.42,63.27,14.91,16.49,24,29.35,24,54.88,0,89.9-54.88,97.08-107,103C282.68,325,290,339,290,360.85c0,31.4-.28,70.25-.28,77.89,0,6.06,4.28,13.42,16.12,11.27C399,419.08,462.13,330.66,462.13,227.34,462.13,98.11,357.31,0,228.08,0ZM90.56,321.35c-1.21.93-.93,3.07.65,4.84,1.49,1.49,3.64,2.14,4.85.93,1.21-.93.93-3.07-.65-4.84C93.92,320.79,91.77,320.13,90.56,321.35ZM80.5,313.8c-.65,1.21.28,2.7,2.14,3.63,1.49.93,3.36.65,4-.65s-.28-2.7-2.14-3.63C82.64,312.59,81.15,312.87,80.5,313.8ZM110.69,347c-1.49,1.21-.94,4,1.21,5.77,2.14,2.15,4.84,2.43,6,.94,1.22-1.22.66-4-1.21-5.78C114.69,345.76,111.9,345.48,110.69,347Zm-10.62-13.7c-1.5.93-1.5,3.36,0,5.5s4,3.07,5.21,2.14c1.49-1.21,1.49-3.63,0-5.78-1.3-2.14-3.72-3.07-5.21-1.86Z"/></g></g></svg>