<svg id="Layer_1" data-name="Layer 1" xmlns="http://www.w3.org/2000/svg" viewBox="0 0 595.28 549.11"><defs><style>.cls-1{fill:#333;}.cls-2{fill:#fff;}</style></defs><title>svg_icon_twitter</title><path class="cls-1" d="M524.25,274.55C524.25,399,423.4,499.83,299,499.83S73.69,399,73.69,274.55,174.54,49.27,299,49.27,524.25,150.12,524.25,274.55Z"/><path id="twitter-4-icon" class="cls-2" d="M389.17,227.82c2.9,65-45.59,137.46-131.39,137.46a130.66,130.66,0,0,1-70.84-20.77,93,93,0,0,0,68.47-19.1,46.25,46.25,0,0,1-43.21-32.12,46.05,46.05,0,0,0,20.86-.79A46.18,46.18,0,0,1,196,246.57a46.82,46.82,0,0,0,20.94,5.8,46.29,46.29,0,0,1-14.34-61.68A131.21,131.21,0,0,0,297.91,239a46.24,46.24,0,0,1,78.76-42.15,94.32,94.32,0,0,0,29.39-11.18,46.44,46.44,0,0,1-20.32,25.61A93.8,93.8,0,0,0,412.31,204,97.69,97.69,0,0,1,389.17,227.82Z"/></svg>