<?xml version="1.0" encoding="utf-8"?>
<!-- Generator: Adobe Illustrator 22.1.0, SVG Export Plug-In . SVG Version: 6.00 Build 0)  -->
<svg version="1.1" id="Layer_1" xmlns="http://www.w3.org/2000/svg" xmlns:xlink="http://www.w3.org/1999/xlink" x="0px" y="0px"
	 viewBox="0 0 64 64" style="enable-background:new 0 0 64 64;" xml:space="preserve">
<style type="text/css">
	.st0{clip-path:url(#SVGID_1_);}
	.st1{fill:#FFFFFF;}
	.st2{fill:none;stroke:#000000;stroke-width:10;}
</style>
<g>
	<defs>
		<rect id="SVGID_3_" x="3" y="3" width="58" height="58"/>
	</defs>
	<clipPath id="SVGID_1_">
		<use xlink:href="#SVGID_3_"  style="overflow:visible;"/>
	</clipPath>
	<g class="st0">
		<rect x="3" y="3" class="st1" width="58" height="58"/>
		<path d="M20.3,15.1H29v30.2h18.7v7H20.3V15.1z"/>
		<path d="M46.7,18.4v1.8h-7v-1.4l3.6-3.4c0.4-0.4,0.6-0.7,0.8-0.9c0.1-0.3,0.2-0.5,0.2-0.8c0-0.4-0.1-0.7-0.4-0.9
			c-0.2-0.2-0.6-0.3-1.1-0.3c-0.4,0-0.8,0.1-1.1,0.2c-0.3,0.2-0.6,0.4-0.8,0.7l-1.6-1c0.4-0.5,0.9-1,1.5-1.3
			c0.6-0.3,1.4-0.5,2.2-0.5c0.7,0,1.3,0.1,1.8,0.3c0.5,0.2,0.9,0.5,1.2,1c0.3,0.4,0.4,0.9,0.4,1.4c0,0.5-0.1,1-0.3,1.4
			c-0.2,0.4-0.6,0.9-1.2,1.5l-2.1,2H46.7z"/>
		<rect x="3.9" y="3.9" class="st2" width="56.2" height="56.2"/>
	</g>
</g>
</svg>
