<svg id="Layer_1" data-name="Layer 1" xmlns="http://www.w3.org/2000/svg" xmlns:xlink="http://www.w3.org/1999/xlink" viewBox="0 0 200 200"><defs><style>.cls-1{fill:none;}.cls-2{clip-path:url(#clip-path);}.cls-3{fill:#fff;}</style><clipPath id="clip-path"><rect class="cls-1" width="200" height="200"/></clipPath></defs><title>logo</title><g class="cls-2"><rect class="cls-3" width="200" height="200"/><path d="M59.8,41.7H89.5V145.9h64.4v24.2H59.8Z"/><path d="M150.6,53.2v6.1H126.3V54.5l12.4-11.7a16.24,16.24,0,0,0,2.7-3.2,5.44,5.44,0,0,0,.7-2.7,3.24,3.24,0,0,0-1.3-2.9,5.93,5.93,0,0,0-3.8-1.1,9.21,9.21,0,0,0-3.8.8,6.46,6.46,0,0,0-2.8,2.4L125,32.6a13.19,13.19,0,0,1,5.2-4.4,16.67,16.67,0,0,1,7.6-1.6,14.59,14.59,0,0,1,6.2,1.2,10,10,0,0,1,4.2,3.3,8.45,8.45,0,0,1,1.5,5,11.7,11.7,0,0,1-1.1,4.9,18.25,18.25,0,0,1-4.3,5.2l-7.4,7Z"/><path d="M0,0V200H200V0ZM186.21,186.21H13.79V13.79H186.21Z"/></g></svg>