<?xml version="1.0" encoding="utf-8"?>
<!-- Generator: Adobe Illustrator 22.1.0, SVG Export Plug-In . SVG Version: 6.00 Build 0)  -->
<svg version="1.1" id="Layer_1" xmlns="http://www.w3.org/2000/svg" xmlns:xlink="http://www.w3.org/1999/xlink" x="0px" y="0px"
	 viewBox="0 0 177 179" style="enable-background:new 0 0 177 179;" xml:space="preserve">
<style type="text/css">
	.st0{fill:none;stroke:#000000;stroke-width:10;}
</style>
<path d="M87.3,122.1V45.8H52.5V151h78.6v-28.9H87.3z"/>
<path d="M127.2,35.5c-5.5,0-10.6,2-15.6,5.5l4.3,8.3c3.4-2.8,6.8-4.5,9.5-4.5c1.5,0,2.3,0.7,2.3,1.9c0,1.2-1.2,2.9-2.6,4.4
	l-12.2,12.7V71h27.4v-8.9h-12.6l5.3-5.3c3.9-3.9,6.8-7.8,6.8-11.8C139.8,39.2,134.4,35.5,127.2,35.5z"/>
<rect x="5" class="st0" width="167" height="174"/>
</svg>
