<svg width="314" height="314" viewBox="0 0 314 314" fill="none" xmlns="http://www.w3.org/2000/svg">
<g clip-path="url(#clip0)">
<rect width="314" height="314" fill="white"/>
<path d="M93.904 65.4H140.56V228.984H241.648V267H93.904V65.4Z" fill="black"/>
<path d="M236.464 83.496V93H198.376V85.44L217.816 67.08C219.88 65.112 221.272 63.432 221.992 62.04C222.712 60.6 223.072 59.184 223.072 57.792C223.072 55.776 222.376 54.24 220.984 53.184C219.64 52.08 217.648 51.528 215.008 51.528C212.8 51.528 210.808 51.96 209.032 52.824C207.256 53.64 205.768 54.888 204.568 56.568L196.072 51.096C198.04 48.168 200.752 45.888 204.208 44.256C207.664 42.576 211.624 41.736 216.088 41.736C219.832 41.736 223.096 42.36 225.88 43.608C228.712 44.808 230.896 46.536 232.432 48.792C234.016 51 234.808 53.616 234.808 56.64C234.808 59.376 234.232 61.944 233.08 64.344C231.928 66.744 229.696 69.48 226.384 72.552L214.792 83.496H236.464Z" fill="black"/>
<rect x="5" y="5" width="304" height="304" stroke="black" stroke-width="10"/>
</g>
<defs>
<clipPath id="clip0">
<rect width="314" height="314" fill="white"/>
</clipPath>
</defs>
</svg>
