<?xml version="1.0" encoding="utf-8"?>
<!-- Generator: Adobe Illustrator 22.1.0, SVG Export Plug-In . SVG Version: 6.00 Build 0)  -->
<svg version="1.1" id="Layer_1" xmlns="http://www.w3.org/2000/svg" xmlns:xlink="http://www.w3.org/1999/xlink" x="0px" y="0px"
	 viewBox="0 0 177 54" style="enable-background:new 0 0 177 54;" xml:space="preserve">
<style type="text/css">
	.st0{fill:none;stroke:#121111;stroke-width:5;}
</style>
<path d="M56.5,30.7c-0.1,1.1-0.5,2-1.2,2.6c-0.7,0.6-1.6,0.9-2.7,0.9c-0.8,0-1.5-0.2-2.1-0.6c-0.6-0.4-1.1-1-1.4-1.7
	c-0.3-0.7-0.5-1.6-0.5-2.5V28c0-0.9,0.2-1.8,0.5-2.5c0.3-0.7,0.8-1.3,1.4-1.7c0.6-0.4,1.3-0.6,2.2-0.6c1.1,0,2,0.3,2.7,0.9
	c0.7,0.6,1,1.5,1.2,2.6h-0.9c-0.2-1.8-1.2-2.7-3-2.7c-1,0-1.7,0.4-2.3,1.1c-0.6,0.7-0.9,1.7-0.9,3v1.3c0,1.2,0.3,2.2,0.8,2.9
	c0.6,0.7,1.3,1.1,2.3,1.1c0.9,0,1.7-0.2,2.1-0.7c0.5-0.5,0.8-1.1,0.9-2H56.5z M64.5,31h-4.8l-1.1,3h-0.9l4-10.7h0.9l4,10.7h-0.9
	L64.5,31z M59.9,30.2h4.3l-2.1-5.8L59.9,30.2z M69,33.2h5.3V34h-6.2V23.3H69V33.2z M83.1,30.7c-0.1,1.1-0.5,2-1.2,2.6
	c-0.7,0.6-1.6,0.9-2.7,0.9c-0.8,0-1.5-0.2-2.1-0.6c-0.6-0.4-1.1-1-1.4-1.7c-0.3-0.7-0.5-1.6-0.5-2.5V28c0-0.9,0.2-1.8,0.5-2.5
	c0.3-0.7,0.8-1.3,1.4-1.7c0.6-0.4,1.3-0.6,2.2-0.6c1.1,0,2,0.3,2.7,0.9c0.7,0.6,1,1.5,1.2,2.6h-0.9C82,24.9,81,24,79.2,24
	c-1,0-1.7,0.4-2.3,1.1c-0.6,0.7-0.9,1.7-0.9,3v1.3c0,1.2,0.3,2.2,0.8,2.9c0.6,0.7,1.3,1.1,2.3,1.1c0.9,0,1.7-0.2,2.1-0.7
	c0.5-0.5,0.8-1.1,0.9-2H83.1z M92.6,23.3v7.3c0,0.7-0.2,1.3-0.5,1.9s-0.8,0.9-1.3,1.2c-0.6,0.3-1.2,0.4-2,0.4c-1.1,0-2-0.3-2.7-0.9
	c-0.7-0.6-1-1.5-1-2.5v-7.3H86v7.2c0,0.9,0.3,1.6,0.8,2.1c0.5,0.5,1.2,0.7,2.1,0.7s1.6-0.2,2.1-0.7c0.5-0.5,0.8-1.2,0.8-2.1v-7.2
	H92.6z M96,33.2h5.3V34h-6.2V23.3H96V33.2z M109,31h-4.8l-1.1,3h-0.9l4-10.7h0.9l4,10.7h-0.9L109,31z M104.4,30.2h4.3l-2.1-5.8
	L104.4,30.2z M118.9,24.1h-3.7V34h-0.9v-9.9h-3.6v-0.8h8.2V24.1z M126.5,28.9h-5v4.4h5.7V34h-6.6V23.3h6.6v0.8h-5.7v4h5V28.9z"/>
<rect x="2.5" y="2.5" class="st0" width="172" height="49"/>
</svg>
