<svg width="1574" height="4929" viewBox="0 0 1574 4929" fill="none" xmlns="http://www.w3.org/2000/svg">
<path d="M355.04 776.13V484.589C272.198 594.902 165.687 701.275 74.9547 764.311C59.1753 740.672 27.6164 705.215 3.94727 689.456C114.403 626.42 244.584 500.348 323.481 378.216H27.6165V287.602H351.095V149.71C256.418 161.53 161.742 173.349 67.0651 181.228C63.1202 161.53 47.3407 126.072 35.5061 106.373C244.584 86.6744 497.055 51.2167 623.291 0L717.967 74.8552C710.077 78.7949 710.077 78.7949 686.408 78.7949C631.18 98.4937 560.173 114.253 481.275 130.012C477.331 137.891 469.441 141.831 449.717 145.771V291.541H745.581V382.156H449.717V425.493C504.945 453.071 682.463 555.504 725.857 583.083L670.629 665.817C627.235 630.359 524.669 559.444 449.717 512.167V776.13H355.04V776.13ZM891.541 646.118C887.596 657.938 875.762 665.817 859.982 665.817C1025.67 811.588 1321.53 945.539 1570.06 1008.58C1550.33 1036.15 1522.72 1075.55 1506.94 1107.07C1262.36 1032.21 958.604 886.443 785.03 728.853C635.125 874.624 355.04 1032.21 67.0651 1126.77C55.2305 1103.13 31.5613 1063.73 15.7818 1040.09C303.757 953.419 587.787 795.829 729.802 642.179L891.541 646.118ZM145.962 1394.67C272.198 1351.33 469.441 1284.36 654.849 1213.44L670.629 1296.18C504.945 1363.15 331.371 1434.07 216.97 1473.47C216.97 1485.28 209.08 1493.16 201.19 1501.04L145.962 1394.67ZM441.827 996.756C501 1044.03 568.062 1114.95 599.621 1162.23L512.834 1221.32C481.276 1174.04 418.158 1099.19 362.93 1047.97L441.827 996.756ZM729.802 874.624L867.872 882.503C863.927 894.323 856.037 902.202 836.313 906.142V1430.13C836.313 1536.5 785.03 1544.38 583.842 1544.38C575.952 1516.8 564.118 1477.41 548.338 1449.83C623.291 1449.83 682.463 1449.83 702.188 1449.83C721.912 1449.83 725.857 1441.95 725.857 1426.19V874.624H729.802ZM1238.69 279.722C1187.41 441.252 1104.56 598.842 1002 701.275C982.273 685.516 946.769 657.938 923.1 646.118C1009.89 563.384 1084.84 425.493 1132.18 279.722H954.659C911.265 362.457 859.982 437.312 808.699 496.408C788.975 480.649 753.471 453.071 725.857 437.312C820.534 338.818 907.321 169.409 958.604 0L1084.84 31.5179C1080.89 43.3372 1069.06 47.2769 1049.34 47.2769C1033.56 90.6141 1017.78 137.891 998.052 181.228H1420.15L1443.82 177.289L1502.99 185.168C1502.99 196.987 1502.99 208.807 1499.05 220.626C1483.27 555.504 1467.49 681.576 1428.04 720.974C1404.37 748.552 1384.65 764.311 1282.08 764.311C1250.52 764.311 1218.96 764.311 1187.41 760.371C1187.41 732.793 1175.57 689.456 1159.79 665.817C1218.96 669.757 1270.25 669.757 1293.92 669.757C1349.15 669.757 1372.81 669.757 1396.48 275.782H1238.69V279.722ZM1357.03 1504.98C1238.69 1430.13 1021.72 1327.69 844.203 1268.6L915.21 1201.62C1088.78 1260.72 1305.75 1359.21 1428.04 1430.13L1357.03 1504.98ZM1045.39 1217.38L970.438 1174.04C1021.72 1122.83 1092.73 1040.09 1132.18 984.937C1195.3 1020.39 1218.96 1032.21 1242.63 1044.03C1234.74 1051.91 1222.91 1055.85 1211.07 1055.85C1167.68 1099.19 1096.67 1170.1 1045.39 1217.38Z" fill="black"/>
<path d="M457.604 2692.55C524.667 2743.77 706.13 2889.54 749.524 2925L686.406 3015.61C643.012 2968.33 540.446 2869.84 457.604 2798.92V3228.36H351.093V2775.29C272.195 2909.24 165.684 3035.31 63.1178 3114.1C51.2832 3086.53 19.7243 3051.07 0 3027.43C118.346 2944.69 244.581 2794.98 319.534 2641.33H31.5589V2542.84H351.093V2357.67H11.8346V2263.12H769.248V2357.67H469.439H493.108C493.108 2369.49 481.273 2377.37 461.549 2377.37V2538.9H757.413V2637.39H457.604V2692.55ZM749.524 1869.14V1963.7H47.3384V1869.14H351.093V1691.85L489.163 1699.73C489.163 1711.55 477.328 1719.43 457.604 1723.37V1869.14H749.524ZM240.637 1979.46C276.14 2058.25 303.754 2160.68 315.589 2231.6L220.912 2255.24C213.023 2188.26 189.353 2081.89 153.85 2003.09L240.637 1979.46ZM686.406 2010.97C682.461 2022.79 670.627 2026.73 650.902 2026.73C631.178 2093.71 595.674 2196.14 564.115 2259.18L481.273 2231.6C508.887 2160.68 544.391 2050.37 560.17 1975.52L686.406 2010.97ZM1073 2755.59C1069.06 2767.41 1061.17 2775.29 1041.44 2775.29C1005.94 2952.57 938.877 3133.8 710.075 3232.3C698.241 3208.66 666.682 3169.26 643.013 3149.56C844.201 3066.83 911.263 2909.24 938.877 2739.83L1073 2755.59ZM1301.8 3070.77C1301.8 3106.22 1305.75 3114.1 1337.31 3114.1H1435.93C1471.43 3114.1 1479.32 3090.46 1479.32 2885.6C1502.99 2905.3 1546.39 2921.06 1574 2928.94C1562.17 3157.44 1538.5 3212.6 1447.76 3212.6H1325.47C1218.96 3212.6 1199.24 3181.08 1199.24 3070.77V2704.37H832.366V1758.83H1483.27V2708.31H1305.75V3070.77H1301.8ZM930.987 1857.32V2042.49H1372.81V1857.32H930.987ZM930.987 2137.05V2326.15H1372.81V2137.05H930.987ZM930.987 2416.77V2605.88H1372.81V2416.77H930.987Z" fill="black"/>
<path d="M848.139 4401.07V4767.47C974.374 4791.11 1029.6 4791.11 1562.16 4791.11C1546.38 4818.69 1526.65 4869.9 1518.77 4897.48H1144C781.076 4897.48 520.715 4830.51 362.921 4531.09C307.693 4684.74 220.906 4830.51 94.6702 4929C74.9458 4905.36 39.4422 4869.9 11.8281 4850.21C220.906 4696.56 303.748 4408.95 327.417 4160.75L473.377 4180.45C473.377 4192.27 461.542 4200.15 441.818 4200.15C433.928 4259.24 422.094 4322.28 406.314 4385.32C473.377 4570.48 583.833 4676.86 733.738 4732.01V4050.44H228.795V3467.35H1376.75V4050.44H848.139V4294.7H1420.14V4401.07H848.139ZM339.252 3573.73V3940.12H1258.4V3573.73H339.252Z" fill="black"/>
</svg>
