<?xml version="1.0" encoding="utf-8"?>
<!-- Generator: Adobe Illustrator 22.1.0, SVG Export Plug-In . SVG Version: 6.00 Build 0)  -->
<svg version="1.1" id="Layer_1" xmlns="http://www.w3.org/2000/svg" xmlns:xlink="http://www.w3.org/1999/xlink" x="0px" y="0px"
	 viewBox="0 0 83 193" style="enable-background:new 0 0 83 193;" xml:space="preserve">
<path d="M25.6,35.1V24c-2.9,3.7-6.7,7.2-10,9.3c-0.5-0.8-1.7-2-2.5-2.4c3.9-2.1,8.6-6.2,11.3-10.3H14v-3H25v-4.9
	c-3.4,0.4-6.8,0.8-10.2,1.1c-0.2-0.7-0.8-2-1.1-2.7c7.5-0.7,16.6-2,21.2-3.8l3.5,2.7c-0.3,0.2-0.3,0.2-1.1,0.2
	c-2,0.7-4.5,1.2-7.4,1.8c-0.2,0.3-0.5,0.4-1.1,0.5v5h10.6v3H28.7v1.8c2.1,1,8.4,4.7,10,5.6l-2,2.9c-1.5-1.2-7.5-5.4-7.5-5.4v9.2
	L25.6,35.1L25.6,35.1L25.6,35.1z M44.5,30.2c-0.2,0.4-0.5,0.7-1.1,0.7c5.9,5.2,16.4,10,25.2,12.1c-0.7,1-1.7,2.4-2.2,3.5
	c-8.7-2.7-19.5-7.8-25.6-13.4c-5.3,5.2-15.2,10.8-25.5,14.2c-0.4-0.8-1.2-2.2-1.8-3c10.2-3.1,20.3-8.7,25.4-14.2L44.5,30.2z
	 M18,56.9c4.5-1.6,11.5-3.9,18.1-6.4l0.5,2.9c-5.9,2.4-12.1,4.9-16.1,6.3c0,0.4-0.3,0.7-0.5,1L18,56.9z M28.5,42.7
	c2.1,1.7,4.5,4.2,5.6,5.9l-3,2.1c-1.1-1.7-3.4-4.3-5.4-6.2L28.5,42.7z M38.7,38.7l4.6,0.2c-0.2,0.4-0.4,0.7-1.1,0.8V58
	c0,0-1.5,4.1-8.7,4.1c-0.3-1-0.7-2.4-1.2-3.3h5.5c0.7-0.1,0.8-0.3,0.9-0.9L38.7,38.7L38.7,38.7L38.7,38.7z M56.8,16.9
	c-1.8,6-4.7,11.5-8.3,15.2c-0.7-0.5-2-1.6-2.8-2c3-2.9,7.4-12.7,7.4-12.7h-6.3c0,0-3.4,5.3-5.2,7.4c-0.7-0.5-2-1.6-3-2.1
	c3.4-3.4,6.5-9.5,8.3-15.5l4.5,1.1c-0.2,0.4-0.5,0.5-1.2,0.5c-0.5,1.6-1.8,4.5-1.8,4.5h15.5l0.9-0.2l2.2,0.3c0,0.5,0,0.9-0.2,1.3
	c-0.6,12.7-1.2,17.5-2.7,19c-0.9,1.1-1.7,1.7-5.6,1.7c-1.2,0-2.4,0-3.6-0.2c0-1.1-0.5-2.7-1.1-3.6C56.1,32,58,32,59,32
	c2.1,0,3,0,3.9-14.9L56.8,16.9L56.8,16.9L56.8,16.9z M61,60.7c-4.2-2.7-11.9-6.3-18.3-8.3l2.5-2.4c6.2,2.1,13.9,5.6,18.3,8.1
	L61,60.7z M49.9,50.6L47.3,49c1.8-1.8,4.3-4.7,5.7-6.7c2.2,1.2,3,1.7,3.9,2.1c-0.3,0.3-0.7,0.4-1.1,0.4
	C54.2,46.3,51.8,48.9,49.9,50.6z"/>
<path d="M29.1,102.7c2.4,1.8,8.8,7,10.4,8.3l-2.2,3.3c-1.6-1.7-5.2-5.3-8.1-7.7V122h-4.1v-16c-2.7,4.7-6.5,9.2-10,11.9
	c-0.4-0.9-1.5-2.2-2.2-3c4.1-2.9,8.5-8.2,11.1-13.6H14v-3.5H25v-6.6H13.5v-3.6h26.7v3.5H29.4h0.8c0,0.5-0.5,0.8-1.1,0.8v5.8h10.6v3
	H29.1V102.7L29.1,102.7z M39.2,73.5V77H14.5v-3.5h11.1v-6.1l4.6,0.3c0,0.4-0.4,0.7-1.1,0.8V74l10.4-0.5L39.2,73.5L39.2,73.5
	L39.2,73.5z M21.4,77.6c1.2,2.8,2.2,6.4,2.7,8.9l-3.4,0.8c-0.3-2.4-1.1-6.2-2.4-8.9L21.4,77.6z M37.2,78.8c-0.2,0.4-0.5,0.5-1.2,0.5
	c-0.7,2.4-2,6-3,8.3l-3-1c1-2.5,2.2-6.4,2.8-9.1L37.2,78.8z M50.9,105.2c-0.2,0.4-0.4,0.7-1.1,0.7c-1.2,6.3-3.6,12.7-11.8,16.3
	c-0.4-0.8-1.6-2.2-2.4-2.9c7.2-2.9,9.5-8.5,10.5-14.6L50.9,105.2z M58.7,116.4c0,1.2,0.2,1.5,1.2,1.5h3.9c1.2,0,1.6-0.9,1.6-8.3
	c0.9,0.8,2.4,1.2,3.5,1.6c-0.5,8.3-1.2,10.2-4.5,10.2h-4.4c-3.8,0-4.5-1.1-4.5-5.2v-13H42.2V69.5h23.2v34.3h-6.6v12.6L58.7,116.4
	L58.7,116.4z M45.7,73.5V80h15.7v-6.5H45.7z M45.7,83v6.6h15.7V83L45.7,83L45.7,83z M45.7,93.1v6.6h15.7v-6.6H45.7z"/>
<path d="M43.2,163.8v13.1c4.5,0.8,6.4,0.8,25.4,0.8c-0.5,1-1.2,2.8-1.6,3.8H53.8c-12.9,0-22.2-2.4-27.8-13c-2,5.4-5,10.6-9.5,14.2
	c-0.7-0.8-2-2.1-3-2.8c7.4-5.4,10.4-15.7,11.2-24.5l5.2,0.7c0,0.4-0.4,0.7-1.1,0.7c-0.3,2.1-0.7,4.3-1.2,6.6
	c2.4,6.6,6.3,10.4,11.7,12.3v-24.5H21v-20.7h40.9v20.7H43.2v9.1h20.2v3.5H43.2L43.2,163.8z M24.6,134v13.1h32.8V134H24.9H24.6
	L24.6,134z"/>
</svg>
