<?xml version="1.0" encoding="utf-8"?>
<!-- Generator: Adobe Illustrator 22.1.0, SVG Export Plug-In . SVG Version: 6.00 Build 0)  -->
<svg version="1.1" id="Layer_1" xmlns="http://www.w3.org/2000/svg" xmlns:xlink="http://www.w3.org/1999/xlink" x="0px" y="0px"
	 viewBox="0 0 595.3 549.1" style="enable-background:new 0 0 595.3 549.1;" xml:space="preserve">
<style type="text/css">
	.st0{fill:#333333;}
	.st1{fill:#FFFFFF;}
	.st2{clip-path:url(#SVGID_2_);}
</style>
<title>svg</title>
<g>
	<path class="st0" d="M1154.3,274.5c0,124.4-100.8,225.3-225.3,225.3S703.8,399,703.8,274.5S804.6,49.3,929,49.3
		S1154.3,150.1,1154.3,274.5z"/>
	<path id="twitter-4-icon_3_" class="st1" d="M1019.2,227.8c2.9,65-45.6,137.5-131.4,137.5c-26.1,0-50.4-7.7-70.8-20.8
		c24.6,2.9,49-3.9,68.5-19.1c-20.2-0.4-37.3-13.7-43.2-32.1c7.2,1.4,14.3,1,20.9-0.8c-22.3-4.5-37.6-24.5-37-45.9
		c6.2,3.4,13.4,5.5,20.9,5.8c-20.6-13.7-26.4-40.9-14.3-61.7c22.8,28,56.8,46.4,95.3,48.3c-6.7-29,15.2-56.8,45.1-56.8
		c13.3,0,25.3,5.6,33.7,14.6c10.6-2.1,20.4-5.9,29.4-11.2c-3.4,10.8-10.8,19.9-20.3,25.6c9.3-1.1,18.2-3.6,26.6-7.3
		C1036,213.2,1028.2,221.3,1019.2,227.8z"/>
</g>
<g>
	<path class="st0" d="M-144.8,274.5c0,124.4-100.8,225.3-225.3,225.3S-595.4,399-595.4,274.5S-494.5,49.3-370.1,49.3
		S-144.8,150.1-144.8,274.5z"/>
	<path id="twitter-4-icon_2_" class="st1" d="M-279.9,227.8c2.9,65-45.6,137.5-131.4,137.5c-26.1,0-50.4-7.7-70.8-20.8
		c24.6,2.9,49-3.9,68.5-19.1c-20.2-0.4-37.3-13.7-43.2-32.1c7.2,1.4,14.3,1,20.9-0.8c-22.3-4.5-37.6-24.5-37-45.9
		c6.2,3.4,13.4,5.5,20.9,5.8c-20.6-13.7-26.4-40.9-14.3-61.7c22.8,28,56.8,46.4,95.3,48.3c-6.7-29,15.2-56.8,45.1-56.8
		c13.3,0,25.3,5.6,33.7,14.6c10.6-2.1,20.4-5.9,29.4-11.2c-3.4,10.8-10.8,19.9-20.3,25.6c9.3-1.1,18.2-3.6,26.6-7.3
		C-263.1,213.2-270.9,221.3-279.9,227.8z"/>
</g>
<g>
	<defs>
		<rect id="SVGID_1_" x="-1262.7" y="49.3" width="450.6" height="450.6"/>
	</defs>
	<clipPath id="SVGID_2_">
		<use xlink:href="#SVGID_1_"  style="overflow:visible;"/>
	</clipPath>
	<g class="st2">
		<path class="st0" d="M-922.5,389.3h-47.6v-74.6c0-17.8-0.4-40.7-24.7-40.7c-24.8,0-28.6,19.4-28.6,39.4v75.9h-47.7V236h45.7v20.9
			h0.6c6.4-12,22-24.7,45.1-24.7c48.2,0,57.2,31.8,57.2,73.1L-922.5,389.3z M-1124.8,215c-15.2,0-27.6-12.4-27.6-27.6
			s12.4-27.6,27.6-27.6c15.2,0,27.6,12.4,27.6,27.6l0,0C-1097.2,202.6-1109.5,215-1124.8,215 M-1100.9,389.2h-47.7V236h47.7V389.2z
			 M-1037.4,49.2c-124.4,0-225.3,100.9-225.3,225.3s100.9,225.3,225.3,225.3S-812.1,399-812.1,274.5S-913,49.3-1037.4,49.2"/>
	</g>
</g>
<g>
	<g>
		<path class="st0" d="M216.9,418.7c-2.7,0-4.8,1.5-4.8,3.4c0,2.1,2.1,3.6,5.2,3.4c2.7,0,4.8-1.5,4.8-3.4
			C222.1,419.9,219.7,418.4,216.9,418.7z"/>
		<path class="st0" d="M234.3,416.3c-2.7,0.7-4.6,2.4-4.3,4.6c0.3,1.9,2.7,3.1,5.5,2.4c2.7-0.7,4.6-2.4,4.3-4.3
			C239.5,417.2,237,416,234.3,416.3z"/>
		<path class="st0" d="M193.1,417.9c-0.7,1.9,1.2,4,4,4.6c2.4,0.9,5.2,0,5.8-1.9c0.6-1.9-1.2-4-4-4.8
			C196.5,415.1,193.8,416,193.1,417.9z"/>
		<path class="st0" d="M178.2,406.2c-1.5,1.2-0.9,4,1.2,5.8c2.1,2.1,4.8,2.4,6.1,0.9c1.2-1.2,0.7-4-1.2-5.8
			C182.2,405,179.4,404.7,178.2,406.2z"/>
		<path class="st0" d="M167.6,392.5c-1.5,0.9-1.5,3.4,0,5.5c1.5,2.1,4,3.1,5.2,2.1c1.5-1.2,1.5-3.6,0-5.8
			C171.5,392.3,169.1,391.3,167.6,392.5z"/>
		<path class="st0" d="M148,373.1c-0.7,1.2,0.3,2.7,2.1,3.6c1.5,0.9,3.4,0.7,4-0.7c0.7-1.2-0.3-2.7-2.1-3.6
			C150.2,371.9,148.7,372.1,148,373.1z"/>
		<path class="st0" d="M158.1,380.6c-1.2,0.9-0.9,3.1,0.7,4.8c1.5,1.5,3.6,2.1,4.8,0.9c1.2-0.9,0.9-3.1-0.7-4.8
			C161.4,380,159.3,379.4,158.1,380.6z"/>
	</g>
	<path class="st0" d="M469.4,420.4c0-0.1,0.1-0.1,0.1-0.2c4.8-5.6,9.3-11.5,13.5-17.6c0.1-0.1,0.1-0.2,0.2-0.3
		c0.8-1.2,1.6-2.4,2.4-3.5c0-0.1,0.1-0.1,0.1-0.2c4.1-6.2,7.9-12.6,11.3-19.2c0.1-0.1,0.1-0.2,0.2-0.3c0.7-1.3,1.3-2.5,2-3.8
		c0-0.1,0.1-0.2,0.1-0.2c3.3-6.7,6.3-13.5,9-20.5c0-0.1,0.1-0.2,0.1-0.4c0.5-1.3,1-2.7,1.5-4.1c0-0.1,0.1-0.2,0.1-0.3
		c2.5-7.1,4.7-14.3,6.5-21.7c0-0.1,0.1-0.3,0.1-0.4c0.3-1.4,0.7-2.8,1-4.3c0-0.1,0-0.2,0.1-0.3c1.6-7.4,2.9-15,3.8-22.7
		c0-0.2,0-0.3,0.1-0.5c0.2-1.5,0.3-2.9,0.4-4.4c0-0.1,0-0.2,0-0.4c0.6-6.2,0.9-12.6,0.9-18.9c0,0,0,0,0,0c0,0,0,0,0,0
		c0-0.6,0-1.1,0-1.7c0-124.5-100.8-225.3-225.3-225.3v0c-124.4,0-225.3,100.9-225.3,225.3c0,0.6,0,1.2,0,1.9c0,0,0,0,0,0
		c0,0,0,0,0,0c0.1,8.1,0.6,16,1.4,23.8c0,0.1,0,0.2,0,0.4c0.2,1.5,0.4,3,0.6,4.5c0,0,0,0,0,0c1.1,7.8,2.5,15.4,4.3,22.9
		c0,0.1,0.1,0.2,0.1,0.4c0.4,1.4,0.7,2.9,1.1,4.3c0,0,0,0.1,0,0.1c2,7.4,4.3,14.6,7,21.7c0.1,0.1,0.1,0.3,0.2,0.4
		c0.5,1.3,1,2.7,1.6,4c0,0.1,0.1,0.2,0.1,0.3c2.8,6.9,5.9,13.7,9.4,20.2c0.1,0.2,0.2,0.4,0.3,0.6c0.6,1.2,1.3,2.4,1.9,3.6
		c0.1,0.2,0.2,0.4,0.3,0.5c2.9,5.2,6,10.2,9.2,15.1c0,0,0,0.1,0.1,0.1c0.7,1.1,1.5,2.2,2.3,3.3c0.2,0.2,0.3,0.5,0.5,0.7
		c0.7,1,1.5,2.1,2.2,3.1c0.2,0.2,0.4,0.5,0.5,0.7c0.8,1.1,1.6,2.1,2.3,3.2c0.1,0.1,0.1,0.2,0.2,0.3c2.6,3.5,5.4,6.9,8.2,10.2
		c0.1,0.1,0.1,0.2,0.2,0.2c0.8,1,1.7,1.9,2.5,2.9c0.2,0.3,0.5,0.5,0.7,0.8c0.8,0.9,1.6,1.8,2.5,2.7c0.3,0.3,0.5,0.6,0.8,0.8
		c0.8,0.9,1.7,1.8,2.5,2.7c0.2,0.2,0.4,0.4,0.5,0.5c2.9,3,5.9,5.9,9,8.8c0.1,0.1,0.2,0.2,0.3,0.3c0.9,0.8,1.8,1.6,2.7,2.4
		c0.3,0.3,0.6,0.5,0.9,0.8c0.9,0.8,1.8,1.5,2.6,2.3c0.3,0.3,0.7,0.6,1,0.9c0.9,0.8,1.8,1.5,2.7,2.2c0.3,0.2,0.6,0.5,0.9,0.7
		c3.2,2.6,6.4,5.1,9.8,7.5c0.1,0.1,0.3,0.2,0.4,0.3c1,0.7,1.9,1.4,2.9,2c0.4,0.3,0.8,0.5,1.1,0.8c0.9,0.6,1.9,1.3,2.8,1.9
		c0.4,0.3,0.8,0.5,1.2,0.8c0.9,0.6,1.9,1.2,2.8,1.8c0.4,0.2,0.7,0.5,1.1,0.7c3.5,2.2,7,4.2,10.5,6.2c0.2,0.1,0.3,0.2,0.4,0.3
		c1,0.6,2,1.1,3.1,1.6c0.4,0.2,0.9,0.5,1.3,0.7c1,0.5,2,1,3,1.5c0.5,0.2,1,0.5,1.4,0.7c1,0.5,2,1,3,1.4c0.4,0.2,0.9,0.4,1.3,0.6
		c1.1,0.5,2.1,1,3.2,1.5c0.2,0.1,0.3,0.1,0.5,0.2c2.6,1.1,5.1,2.2,7.8,3.3c0.1,0,0.2,0.1,0.3,0.1c1.1,0.4,2.2,0.8,3.2,1.3
		c0.5,0.2,0.9,0.4,1.4,0.5c1,0.4,2.1,0.8,3.1,1.1c0.5,0.2,1.1,0.4,1.6,0.6c1,0.4,2.1,0.7,3.1,1.1c0.5,0.2,1,0.3,1.5,0.5
		c1.1,0.4,2.2,0.7,3.3,1c0.3,0.1,0.6,0.2,0.9,0.3c20.6,6.2,42.5,9.6,65.2,9.6c20.3,0,39.9-2.7,58.6-7.7v0c0,0,0,0,0,0
		c26.8-7.2,51.7-19.3,73.6-35.2c0,0,0,0,0,0c6.1-4.4,11.9-9.1,17.5-14.1c0,0,0.1-0.1,0.1-0.1c1.1-1,2.2-2,3.3-3c0,0,0.1-0.1,0.1-0.1
		c5.4-5.1,10.6-10.4,15.6-15.9c0.1-0.1,0.1-0.1,0.2-0.2C467.5,422.6,468.4,421.5,469.4,420.4z M240.5,472.4
		c-0.1-11.9-0.2-26.8-0.2-37.7c0,0-65.2,14-78.9-27.8c0,0-10.6-27.1-25.9-34.1c0,0-21.3-14.6,1.5-14.3c0,0,23.2,1.9,36,24
		c20.4,36,54.6,25.6,67.9,19.5c2.1-14.9,8.2-25.2,14.9-31.4c-52.1-5.8-104.6-13.3-104.6-103c0-25.6,7.1-38.5,22-54.9
		c-2.4-6.1-10.3-31,2.4-63.3c19.5-6.1,64.3,25.2,64.3,25.2c18.6-5.2,38.7-7.9,58.5-7.9c19.8,0,39.9,2.7,58.5,7.9
		c0,0,44.8-31.3,64.3-25.2c12.8,32.3,4.8,57.2,2.4,63.3c14.9,16.5,24,29.3,24,54.9c0,89.9-54.9,97.1-107,103
		c8.6,7.4,15.8,21.3,15.8,43.2c0,19.6-0.1,42.1-0.2,58.1c-18.6,5.5-38.3,8.5-58.7,8.5C277.8,480.5,258.6,477.7,240.5,472.4z"/>
</g>
</svg>
